PathFileType	4	(X/Y/Z)	C:/Users/opensim2020/Desktop/walking_exp_matlab/subject01_walking13_straight_01.trc	
DataRate	CameraRate	NumFrames	NumMarkers	Units	OrigDataRate	OrigDataStartFrame	OrigNumFrames	
100.00	100.00	4	42	mm	100.00	708	142	
Frame#	Time	LFHD			RFHD			LBHD			RBHD			C7			T10			CLAV			STRN			RBAK			LSHO			LUPA			LELB			LFRM			LWRA			LWRB			LFIN			RSHO			RUPA			RELB			RFRM			RWRA			RWRB			RFIN			LASI			RASI			LPSI			RPSI			LTHI			LKNE			LTIB			LANK			LHEE			LTOE			RTHI			RKNE			RTIB			RANK			RHEE			RTOE			*39			*40			*41			
		X1	Y1	Z1	X2	Y2	Z2	X3	Y3	Z3	X4	Y4	Z4	X5	Y5	Z5	X6	Y6	Z6	X7	Y7	Z7	X8	Y8	Z8	X9	Y9	Z9	X10	Y10	Z10	X11	Y11	Z11	X12	Y12	Z12	X13	Y13	Z13	X14	Y14	Z14	X15	Y15	Z15	X16	Y16	Z16	X17	Y17	Z17	X18	Y18	Z18	X19	Y19	Z19	X20	Y20	Z20	X21	Y21	Z21	X22	Y22	Z22	X23	Y23	Z23	X24	Y24	Z24	X25	Y25	Z25	X26	Y26	Z26	X27	Y27	Z27	X28	Y28	Z28	X29	Y29	Z29	X30	Y30	Z30	X31	Y31	Z31	X32	Y32	Z32	X33	Y33	Z33	X34	Y34	Z34	X35	Y35	Z35	X36	Y36	Z36	X37	Y37	Z37	X38	Y38	Z38	X39	Y39	Z39	X40	Y40	Z40	X41	Y41	Z41	X42	Y42	Z42	

107	1.060	-1077.22009	712.56165	1652.47058	-962.80017	715.94104	1652.40784	-1082.00757	589.80255	1632.76660	-960.74152	590.39355	1631.89746	-1045.58252	511.47018	1434.35962	-1026.24475	468.29398	1139.10522	-1034.88440	651.53979	1360.09961	-1038.65125	691.31720	1205.94373	-968.15356	447.17789	1238.68030	-1197.82617	598.36639	1392.33984	-1291.52161	598.08618	1214.11072	-1307.94385	630.42401	1063.78259	-1312.46167	737.01740	1008.38019	-1270.14380	868.10406	986.40015	-1298.08777	838.51428	942.97467	-1302.52075	920.05182	932.71686	-887.97620	579.44409	1393.16199	-790.48248	493.26749	1203.08362	-785.08417	479.44275	1079.77795	-753.79724	486.79904	960.17035	-770.10486	546.26642	831.67462	-734.23376	502.07413	839.67584	-729.87305	528.21057	758.71216	-1141.10754	636.71527	934.10474	-922.90704	652.26086	936.13373	-1070.49585	455.10825	943.76544	-927.25970	468.42810	939.02087	-1183.73022	553.12030	604.75940	-1167.63379	514.50555	473.02429	-1170.59180	421.40878	305.88800	-1117.73938	340.42816	102.53374	-1066.71558	288.15402	87.62923	-1117.79150	474.05722	35.88245	-854.73901	697.77100	613.77625	-887.67786	768.36365	475.15033	-877.47260	758.86987	299.90939	-923.07458	800.42773	92.55647	-977.89288	768.83319	42.91691	-918.73279	944.88904	90.42179	-985.02362	713.46716	1687.81433	-3101.95874	1973.15515	1023.61597	-3140.64478	2012.55469	1022.06970 
108	1.070	-1075.21057	725.59424	1651.21887	-960.80200	728.68103	1651.16443	-1080.36096	602.76703	1631.72852	-959.00104	603.02350	1630.83240	-1043.84192	524.06982	1433.27295	-1024.61304	479.85196	1137.93335	-1033.04016	664.15442	1358.98828	-1037.06836	704.00043	1204.87354	-966.53979	460.01910	1237.33801	-1196.08386	611.03204	1391.48682	-1290.17700	612.01001	1213.77344	-1307.24438	645.74091	1063.77356	-1311.38220	753.93097	1011.48236	-1268.43103	885.29822	993.47791	-1296.44153	857.18835	949.11102	-1300.54944	938.94336	941.54663	-886.25885	592.04443	1391.88416	-789.13013	504.67426	1202.14868	-784.14557	490.13123	1078.99402	-752.38562	495.58771	959.58502	-768.29144	552.53796	829.80670	-732.61206	508.33261	838.61432	-727.87122	533.31531	757.42188	-1140.50256	648.95038	933.39203	-922.38391	666.50201	934.73932	-1068.34802	467.93365	942.96918	-925.14020	482.38547	937.73297	-1184.19641	560.80042	605.12054	-1167.85413	521.19250	473.53326	-1171.13037	425.87347	307.69443	-1118.58960	342.18210	105.31221	-1067.70020	289.49106	91.55067	-1118.08630	474.15210	35.83555	-853.42572	709.21777	611.31445	-887.93982	780.71082	473.71429	-877.56665	777.54211	298.67035	-923.30029	826.97406	92.86388	-978.25397	797.56604	42.03638	-918.70575	971.48846	96.54770	-982.98608	726.31573	1686.54187	-3101.88989	1973.15430	1023.42065	-3140.62402	2012.58594	1022.01886 
109	1.080	-1073.10681	738.60217	1649.99194	-958.66101	741.37183	1649.93750	-1078.56311	615.79407	1630.63696	-957.13092	615.75494	1629.82300	-1041.90930	536.77887	1432.09998	-1022.86670	492.71942	1136.60229	-1031.16675	676.92670	1357.88745	-1035.47742	716.92523	1203.80688	-964.91296	473.00879	1235.84351	-1194.00696	623.79242	1390.63745	-1288.77881	625.90381	1213.47546	-1306.67542	660.99249	1063.82104	-1310.14001	770.46826	1014.41626	-1266.62158	901.91589	1000.05487	-1294.78247	875.30634	954.94104	-1298.91455	957.20935	950.03754	-884.16736	604.66339	1390.59937	-787.59845	516.20923	1201.13733	-782.85193	501.00037	1078.18066	-750.94122	504.59665	958.91638	-766.43286	559.71124	828.19379	-731.01099	515.50458	837.83179	-726.19037	538.95947	756.11621	-1139.59387	661.70605	932.79138	-921.92487	680.65985	933.26746	-1066.14746	480.94290	942.19592	-922.91302	496.34644	936.66431	-1184.59595	569.12592	605.44257	-1168.35974	528.45905	473.92355	-1171.78296	430.88147	309.51761	-1119.24036	343.74561	108.39559	-1069.03564	291.12698	95.71963	-1118.37830	474.30115	35.83691	-852.52356	721.37567	609.23322	-888.00739	793.08264	472.39041	-877.99963	795.45239	297.68213	-923.95929	850.90814	93.24641	-979.08759	823.30676	41.58459	-918.73181	995.30597	101.46254	-980.84265	739.10999	1685.29517	-3101.90259	1973.12695	1023.50665	-3140.56323	2012.55310	1022.03387 
110	1.090	-1070.87769	751.56512	1648.77966	-956.46637	754.08337	1648.77795	-1076.70142	628.77759	1629.53418	-955.29987	628.44214	1628.74548	-1039.77112	549.47699	1430.80322	-1021.13361	505.82529	1135.31592	-1029.09265	689.72504	1356.77795	-1033.79492	729.96527	1202.79907	-963.12170	486.16638	1234.24695	-1192.08008	636.54156	1389.83130	-1287.16223	639.72028	1213.16455	-1305.97949	676.03583	1063.82263	-1308.89185	786.65979	1017.23499	-1264.71814	918.04266	1006.16150	-1293.03918	892.81360	960.41290	-1296.89209	974.80817	957.88965	-882.19934	617.35547	1389.17712	-786.00085	527.88409	1200.05103	-781.40283	511.86996	1077.26746	-749.49042	513.79053	958.15497	-764.60699	567.28400	826.66821	-729.32184	523.07898	836.94330	-724.54382	545.28265	754.68518	-1139.04309	674.49341	931.91626	-921.49695	694.93030	931.81573	-1063.75586	494.11725	941.29718	-920.57977	510.64197	935.42969	-1184.82483	578.22125	605.60175	-1168.71521	536.66681	474.14218	-1172.43384	436.50754	311.30505	-1120.30518	345.79953	111.53352	-1070.18030	292.96176	100.01569	-1118.49585	474.38837	35.62727	-852.22327	734.00128	607.62402	-888.09686	805.59448	470.98755	-878.71350	812.25360	296.51007	-925.03589	872.11353	93.56775	-980.61603	845.84863	41.24500	-919.37982	1016.17224	105.04375	-978.73895	751.92114	1684.13818	-3102.04956	1973.18848	1023.40814	-3140.70435	2012.63623	1022.19592 
